<?xml version="1.0" encoding="UTF-8"?>
<svg version="1.1" xmlns="http://www.w3.org/2000/svg" width="333" height="251">
<path d="M0 0 C4.01441199 3.22077584 7.60619692 6.95064886 11.1171875 10.70703125 C13.01882194 12.78458061 13.01882194 12.78458061 16.0625 13.5625 C16.2790625 14.4596875 16.2790625 14.4596875 16.5 15.375 C17.25601052 18.31504091 18.87799282 19.51038719 21.0625 21.5625 C22.0525 23.0475 22.0525 23.0475 23.0625 24.5625 C23.7225 24.8925 24.3825 25.2225 25.0625 25.5625 C25.0625 26.5525 25.0625 27.5425 25.0625 28.5625 C27.02086792 28.58437378 27.02086792 28.58437378 29.01879883 28.60668945 C33.90757311 28.66508657 38.79590655 28.74231405 43.68432617 28.82495117 C45.79167474 28.85800699 47.89910773 28.88609776 50.0065918 28.90893555 C53.05293434 28.9428399 56.0985165 28.99517057 59.14453125 29.05078125 C60.53585014 29.06036613 60.53585014 29.06036613 61.95527649 29.07014465 C69.2191487 29.22988442 77.61088613 29.64605209 83.35749817 34.50166321 C85.0625 36.5625 85.0625 36.5625 85.41015625 39.25390625 C85.12660824 42.10880743 84.81018809 44.79036989 84.0625 47.5625 C81.9375 49.25 81.9375 49.25 79.0625 50.5625 C75.98837401 53.60357087 72.88391235 56.77091558 71.0703125 60.7265625 C70.0625 62.5625 70.0625 62.5625 66.625 64 C62.98321476 65.18532649 62.98321476 65.18532649 61.6875 67.875 C58.76356278 72.71074232 53.36233695 75.79588768 48.0625 77.5625 C48.68125 77.645 49.3 77.7275 49.9375 77.8125 C50.63875 78.06 51.34 78.3075 52.0625 78.5625 C52.47242188 79.46162109 52.47242188 79.46162109 52.890625 80.37890625 C54.42155085 83.23153141 56.27710585 84.43035355 58.9375 86.25 C60.23300781 87.15298828 60.23300781 87.15298828 61.5546875 88.07421875 C63.90806702 89.65417411 63.90806702 89.65417411 66.2578125 90.01953125 C66.85335937 90.19871094 67.44890625 90.37789063 68.0625 90.5625 C68.75521966 91.88248549 69.419853 93.21742489 70.0625 94.5625 C71.9890894 96.09692032 71.9890894 96.09692032 74.1875 97.3125 C74.91195312 97.74046875 75.63640625 98.1684375 76.3828125 98.609375 C76.93710938 98.92390625 77.49140625 99.2384375 78.0625 99.5625 C79.86148963 98.32306233 81.65146323 97.07053104 83.4375 95.8125 C84.43523437 95.11640625 85.43296875 94.4203125 86.4609375 93.703125 C88.95789418 91.64857205 89.79890964 90.43203279 91.0625 87.5625 C93.375 86.5 93.375 86.5 96.0625 85.5625 C100.17190813 83.55571195 100.17190813 83.55571195 102.0625 79.5625 C102.74828125 79.49804688 103.4340625 79.43359375 104.140625 79.3671875 C108.00925716 78.30176207 110.72201013 76.13905713 113.8125 73.6875 C114.40160156 73.24019531 114.99070313 72.79289062 115.59765625 72.33203125 C119.15451666 69.57161443 119.15451666 69.57161443 121.0625 65.5625 C122.0525 65.2325 123.0425 64.9025 124.0625 64.5625 C124.3925 63.9025 124.7225 63.2425 125.0625 62.5625 C126.0525 62.2325 127.0425 61.9025 128.0625 61.5625 C128.3925 60.9025 128.7225 60.2425 129.0625 59.5625 C130.0525 59.2325 131.0425 58.9025 132.0625 58.5625 C132.3925 57.9025 132.7225 57.2425 133.0625 56.5625 C134.0525 56.2325 135.0425 55.9025 136.0625 55.5625 C136.3925 54.9025 136.7225 54.2425 137.0625 53.5625 C138.0525 53.2325 139.0425 52.9025 140.0625 52.5625 C140.3925 51.9025 140.7225 51.2425 141.0625 50.5625 C142.0525 50.2325 143.0425 49.9025 144.0625 49.5625 C145.75066933 47.91761706 147.41603315 46.24912458 149.0625 44.5625 C151.51307854 42.54437649 153.01946319 41.5768456 156.0625 40.5625 C156.3925 39.9025 156.7225 39.2425 157.0625 38.5625 C158.5475 38.0675 158.5475 38.0675 160.0625 37.5625 C160.3925 36.9025 160.7225 36.2425 161.0625 35.5625 C162.5475 35.0675 162.5475 35.0675 164.0625 34.5625 C164.68125 33.9025 165.3 33.2425 165.9375 32.5625 C168.40334074 30.24170872 169.75927077 29.97540365 173.0625 29.5625 C173.67867188 29.39492188 174.29484375 29.22734375 174.9296875 29.0546875 C182.29573566 27.35483023 189.84262798 28.84201986 197.0625 30.5625 C197.0625 31.2225 197.0625 31.8825 197.0625 32.5625 C198.74772729 34.26734466 198.74772729 34.26734466 200.875 36 C206.7508642 40.95541917 209.94007624 43.99689948 210.86006927 51.90237427 C211.32346548 57.99182614 211.21946082 64.11089272 211.22363281 70.21484375 C211.22826748 71.7990836 211.23329301 73.38332234 211.23867798 74.96755981 C211.25173592 79.25261014 211.25823321 83.53764485 211.26268864 87.82271194 C211.26562826 90.50297503 211.26973458 93.18323392 211.27419281 95.86349487 C211.28784633 104.25909307 211.29752515 112.65468159 211.3013947 121.05029011 C211.30587932 130.72515799 211.32345492 140.39988488 211.3523953 150.07470989 C211.37402632 157.56708151 211.38409963 165.05941348 211.38543582 172.55181599 C211.38648223 177.02108002 211.39235591 181.49021111 211.41025543 185.95944214 C211.42676219 190.1620159 211.42887905 194.36435708 211.42011642 198.56695175 C211.41934762 200.10520934 211.4236681 201.64347959 211.43357468 203.18170547 C211.49969702 214.09200528 210.99952249 222.43189159 203.0625 230.5625 C186.9379845 238.62475775 167.08665191 233.20201696 149.0625 233.5625 C149.0625 198.9125 149.0625 164.2625 149.0625 128.5625 C145.0625 130.0625 145.0625 130.0625 144.0625 132.5625 C143.0725 132.8925 142.0825 133.2225 141.0625 133.5625 C140.7325 134.2225 140.4025 134.8825 140.0625 135.5625 C139.0725 135.8925 138.0825 136.2225 137.0625 136.5625 C136.7325 137.2225 136.4025 137.8825 136.0625 138.5625 C135.32 138.665625 134.5775 138.76875 133.8125 138.875 C129.06651847 140.06149538 126.68673511 143.62614733 124.0625 147.5625 C122.825 147.7790625 122.825 147.7790625 121.5625 148 C120.7375 148.185625 119.9125 148.37125 119.0625 148.5625 C117.9124169 150.52922915 117.9124169 150.52922915 117.0625 152.5625 C116.0725 152.8925 115.0825 153.2225 114.0625 153.5625 C112.37433067 155.20738294 110.70896685 156.87587542 109.0625 158.5625 C106.61192146 160.58062351 105.10553681 161.5481544 102.0625 162.5625 C101.7325 163.2225 101.4025 163.8825 101.0625 164.5625 C100.32 164.665625 99.5775 164.76875 98.8125 164.875 C94.06651847 166.06149538 91.68673511 169.62614733 89.0625 173.5625 C88.258125 173.68625 87.45375 173.81 86.625 173.9375 C83.80813357 174.32755768 83.80813357 174.32755768 82.25 177.125 C81.6621875 178.3315625 81.6621875 178.3315625 81.0625 179.5625 C74.72384732 178.11484686 70.36703549 174.248678 65.375 170.3125 C63.5087729 168.86594762 61.64156289 167.42066253 59.7734375 165.9765625 C58.82823242 165.2434082 57.88302734 164.51025391 56.90917969 163.75488281 C52.48010821 160.34381404 47.99739982 157.00771036 43.5 153.6875 C42.70956299 153.09936523 41.91912598 152.51123047 41.10473633 151.90527344 C40.36763428 151.36161133 39.63053223 150.81794922 38.87109375 150.2578125 C38.22970459 149.78359863 37.58831543 149.30938477 36.92749023 148.82080078 C34.07937199 146.89918782 31.32166334 145.64888778 28.0625 144.5625 C27.6603125 143.6034375 27.6603125 143.6034375 27.25 142.625 C26.17582248 140.23118314 26.17582248 140.23118314 23.0625 139.5625 C22.0725 139.2325 21.0825 138.9025 20.0625 138.5625 C19.39583333 137.22916667 18.72916667 135.89583333 18.0625 134.5625 C15.81135692 133.01253263 13.4971759 131.82492454 11.0625 130.5625 C10.15391772 133.28824685 9.94032906 134.8391709 9.94897461 137.63699341 C9.9490451 138.46425934 9.9491156 139.29152527 9.94918823 140.14385986 C9.95435455 141.04787537 9.95952087 141.95189087 9.96484375 142.88330078 C9.96630402 143.83798248 9.96776428 144.79266418 9.9692688 145.77627563 C9.97307629 147.85029745 9.97919443 149.92431601 9.98733521 151.99832535 C10.00006806 155.27532857 10.00660624 158.55229147 10.01147461 161.82931519 C10.02291648 168.78206154 10.0421683 175.73477471 10.0625 182.6875 C10.08604678 190.74853142 10.1064494 198.80954404 10.11843872 206.87060165 C10.12495129 210.10859429 10.13745814 213.34652968 10.15014648 216.58450317 C10.1537768 218.55649769 10.1571288 220.52849275 10.16015625 222.50048828 C10.16790573 223.86258423 10.16790573 223.86258423 10.17581177 225.25219727 C10.17599227 227.35597059 10.1249852 229.45965482 10.0625 231.5625 C9.0625 232.5625 9.0625 232.5625 7.00608826 232.68275452 C6.10229935 232.68053391 5.19851044 232.67831329 4.26733398 232.67602539 C3.24635117 232.67594986 2.22536835 232.67587433 1.17344666 232.67579651 C0.0630452 232.67063522 -1.04735626 232.66547394 -2.19140625 232.66015625 C-3.32198959 232.6587413 -4.45257294 232.65732635 -5.61741638 232.65586853 C-9.24497065 232.65025019 -12.87246424 232.63769458 -16.5 232.625 C-18.95247307 232.61998736 -21.4049471 232.61542405 -23.85742188 232.61132812 C-29.88413545 232.6002748 -35.91081339 232.58351884 -41.9375 232.5625 C-42.2675 231.5725 -42.5975 230.5825 -42.9375 229.5625 C-43.9275 229.10875 -44.9175 228.655 -45.9375 228.1875 C-48.9375 226.5625 -48.9375 226.5625 -49.75 224.0625 C-49.811875 223.2375 -49.87375 222.4125 -49.9375 221.5625 C-50.2675 220.5725 -50.5975 219.5825 -50.9375 218.5625 C-51.02602978 217.12833536 -51.0594878 215.69038769 -51.05775452 214.25349426 C-51.05912918 213.37429825 -51.06050385 212.49510223 -51.06192017 211.58926392 C-51.05652725 210.14672745 -51.05652725 210.14672745 -51.05102539 208.67504883 C-51.05117142 207.66023941 -51.05131744 206.64542999 -51.0514679 205.59986877 C-51.05077026 202.23973465 -51.04298478 198.87965571 -51.03515625 195.51953125 C-51.03329154 193.19211355 -51.03186789 190.86469546 -51.03086853 188.53727722 C-51.02704751 182.40685953 -51.01722074 176.27646547 -51.00616455 170.14605713 C-50.99594152 163.89229655 -50.99136899 157.63853215 -50.98632812 151.38476562 C-50.97559813 139.11066669 -50.95852666 126.83658531 -50.9375 114.5625 C-51.75525909 114.77058792 -52.57301819 114.97867584 -53.41555786 115.19306946 C-55.02961014 115.6008387 -55.02961014 115.6008387 -56.67626953 116.0168457 C-57.74152863 116.28680862 -58.80678772 116.55677155 -59.90432739 116.83491516 C-73.31499547 120.05181048 -90.05044281 122.36700097 -102.9375 116.5625 C-105.94367269 113.55632731 -105.53335316 110.73868402 -105.9375 106.5625 C-105.2775 106.5625 -104.6175 106.5625 -103.9375 106.5625 C-103.669375 105.593125 -103.40125 104.62375 -103.125 103.625 C-102.733125 102.614375 -102.34125 101.60375 -101.9375 100.5625 C-100.4525 100.0675 -100.4525 100.0675 -98.9375 99.5625 C-98.834375 98.964375 -98.73125 98.36625 -98.625 97.75 C-97.72947329 94.90059683 -96.19072367 94.42431926 -93.7668457 92.8762207 C-90.03564811 90.19670993 -86.90945803 86.81986416 -83.6875 83.5625 C-82.96820313 82.8509375 -82.24890625 82.139375 -81.5078125 81.40625 C-80.81945312 80.7153125 -80.13109375 80.024375 -79.421875 79.3125 C-78.80022461 78.68859375 -78.17857422 78.0646875 -77.53808594 77.421875 C-75.92650699 75.5497296 -74.97214879 73.79240673 -73.9375 71.5625 C-71.7849224 68.92070022 -70.21330988 68.2837174 -66.9375 67.5625 C-66.9782666 66.65072998 -67.0190332 65.73895996 -67.06103516 64.79956055 C-67.20869076 61.36493449 -67.34521503 57.93021757 -67.47460938 54.49487305 C-67.53243898 53.01780852 -67.5944977 51.54090247 -67.66113281 50.06420898 C-68.22359129 37.49837518 -68.62445343 23.63296103 -60.125 13.375 C-57.616645 11.29664872 -56.08024903 11.17571932 -52.9375 10.5625 C-50.33894575 8.71699966 -50.33894575 8.71699966 -47.9375 6.5625 C-44.52030316 3.60092941 -41.2769519 2.74598688 -36.9375 1.5625 C-35.9475 0.9025 -34.9575 0.2425 -33.9375 -0.4375 C-31.98614348 -0.72076143 -30.03308272 -1.00282637 -28.0703125 -1.19140625 C-25.90157025 -1.4051093 -25.90157025 -1.4051093 -23.6640625 -1.9375 C-16.16433657 -3.31280791 -6.63528398 -4.25127929 0 0 Z " fill="#E44536" transform="translate(107.9375,10.4375)"/>
<path d="M0 0 C4.01441199 3.22077584 7.60619692 6.95064886 11.1171875 10.70703125 C13.01882194 12.78458061 13.01882194 12.78458061 16.0625 13.5625 C16.2790625 14.4596875 16.2790625 14.4596875 16.5 15.375 C17.25601052 18.31504091 18.87799282 19.51038719 21.0625 21.5625 C22.0525 23.0475 22.0525 23.0475 23.0625 24.5625 C23.7225 24.8925 24.3825 25.2225 25.0625 25.5625 C25.0625 26.5525 25.0625 27.5425 25.0625 28.5625 C27.02086792 28.58437378 27.02086792 28.58437378 29.01879883 28.60668945 C33.90757311 28.66508657 38.79590655 28.74231405 43.68432617 28.82495117 C45.79167474 28.85800699 47.89910773 28.88609776 50.0065918 28.90893555 C53.05293434 28.9428399 56.0985165 28.99517057 59.14453125 29.05078125 C60.53585014 29.06036613 60.53585014 29.06036613 61.95527649 29.07014465 C69.2191487 29.22988442 77.61088613 29.64605209 83.35749817 34.50166321 C85.0625 36.5625 85.0625 36.5625 85.41015625 39.25390625 C85.12660824 42.10880743 84.81018809 44.79036989 84.0625 47.5625 C81.9375 49.25 81.9375 49.25 79.0625 50.5625 C75.98837401 53.60357087 72.88391235 56.77091558 71.0703125 60.7265625 C70.0625 62.5625 70.0625 62.5625 66.625 64 C62.98321476 65.18532649 62.98321476 65.18532649 61.6875 67.875 C59.19524013 71.9968144 55.44125105 74.60818013 51.0625 76.5625 C47.21884771 76.99576884 44.97685494 77.11996156 41.640625 75.0859375 C40.87234375 74.37695312 40.1040625 73.66796875 39.3125 72.9375 C34.13673351 68.40329788 28.75052288 64.29997383 23.1875 60.25 C21.5646115 59.06708186 19.94219345 57.88351795 18.3203125 56.69921875 C17.57297852 56.15958496 16.82564453 55.61995117 16.05566406 55.06396484 C14.0625 53.5625 14.0625 53.5625 11.3671875 51.08203125 C9.13688452 49.26666319 9.13688452 49.26666319 6.31689453 49.81933594 C2.93831047 50.59085956 -0.09508577 51.64753558 -3.3125 52.93359375 C-4.53565918 53.42118164 -5.75881836 53.90876953 -7.01904297 54.41113281 C-8.32538791 54.94027999 -9.63153659 55.46991188 -10.9375 56 C-11.59735901 56.26550659 -12.25721802 56.53101318 -12.93707275 56.80456543 C-25.10114464 61.70053165 -37.07589871 66.97129914 -48.9375 72.5625 C-49.80902651 79.20168379 -49.80902651 79.20168379 -47.7890625 85.30810547 C-46.08260076 86.73493247 -44.35264438 87.86857056 -42.4375 89 C-41.04952703 89.91476648 -39.66284938 90.83150077 -38.27734375 91.75 C-37.55788574 92.21019531 -36.83842773 92.67039062 -36.09716797 93.14453125 C-32.60907202 95.43470322 -29.31558288 97.96948145 -26 100.5 C-24.66475218 101.50482337 -23.3288099 102.50872457 -21.9921875 103.51171875 C-20.64055472 104.52855242 -19.28899296 105.5454805 -17.9375 106.5625 C-15.85143336 108.13217965 -13.7651274 109.70153498 -11.67797852 111.26977539 C-10.32358581 112.28754296 -8.96989154 113.30624071 -7.61694336 114.32592773 C-4.6244481 116.5754329 -1.62264885 118.80182525 1.44140625 120.953125 C2.92447266 121.99726563 2.92447266 121.99726563 4.4375 123.0625 C5.71753906 123.94421875 5.71753906 123.94421875 7.0234375 124.84375 C9.17587575 126.65806577 10.18445003 127.89661336 11.0625 130.5625 C10.7325 131.5525 10.4025 132.5425 10.0625 133.5625 C9.97653578 134.91846935 9.94477614 136.27830835 9.94897461 137.63699341 C9.9490451 138.46425934 9.9491156 139.29152527 9.94918823 140.14385986 C9.95435455 141.04787537 9.95952087 141.95189087 9.96484375 142.88330078 C9.96630402 143.83798248 9.96776428 144.79266418 9.9692688 145.77627563 C9.97307629 147.85029745 9.97919443 149.92431601 9.98733521 151.99832535 C10.00006806 155.27532857 10.00660624 158.55229147 10.01147461 161.82931519 C10.02291648 168.78206154 10.0421683 175.73477471 10.0625 182.6875 C10.08604678 190.74853142 10.1064494 198.80954404 10.11843872 206.87060165 C10.12495129 210.10859429 10.13745814 213.34652968 10.15014648 216.58450317 C10.1537768 218.55649769 10.1571288 220.52849275 10.16015625 222.50048828 C10.16790573 223.86258423 10.16790573 223.86258423 10.17581177 225.25219727 C10.17599227 227.35597059 10.1249852 229.45965482 10.0625 231.5625 C9.0625 232.5625 9.0625 232.5625 7.00608826 232.68275452 C6.10229935 232.68053391 5.19851044 232.67831329 4.26733398 232.67602539 C3.24635117 232.67594986 2.22536835 232.67587433 1.17344666 232.67579651 C0.0630452 232.67063522 -1.04735626 232.66547394 -2.19140625 232.66015625 C-3.32198959 232.6587413 -4.45257294 232.65732635 -5.61741638 232.65586853 C-9.24497065 232.65025019 -12.87246424 232.63769458 -16.5 232.625 C-18.95247307 232.61998736 -21.4049471 232.61542405 -23.85742188 232.61132812 C-29.88413545 232.6002748 -35.91081339 232.58351884 -41.9375 232.5625 C-42.2675 231.5725 -42.5975 230.5825 -42.9375 229.5625 C-43.9275 229.10875 -44.9175 228.655 -45.9375 228.1875 C-48.9375 226.5625 -48.9375 226.5625 -49.75 224.0625 C-49.811875 223.2375 -49.87375 222.4125 -49.9375 221.5625 C-50.2675 220.5725 -50.5975 219.5825 -50.9375 218.5625 C-51.02602978 217.12833536 -51.0594878 215.69038769 -51.05775452 214.25349426 C-51.05912918 213.37429825 -51.06050385 212.49510223 -51.06192017 211.58926392 C-51.05652725 210.14672745 -51.05652725 210.14672745 -51.05102539 208.67504883 C-51.05117142 207.66023941 -51.05131744 206.64542999 -51.0514679 205.59986877 C-51.05077026 202.23973465 -51.04298478 198.87965571 -51.03515625 195.51953125 C-51.03329154 193.19211355 -51.03186789 190.86469546 -51.03086853 188.53727722 C-51.02704751 182.40685953 -51.01722074 176.27646547 -51.00616455 170.14605713 C-50.99594152 163.89229655 -50.99136899 157.63853215 -50.98632812 151.38476562 C-50.97559813 139.11066669 -50.95852666 126.83658531 -50.9375 114.5625 C-51.75525909 114.77058792 -52.57301819 114.97867584 -53.41555786 115.19306946 C-55.02961014 115.6008387 -55.02961014 115.6008387 -56.67626953 116.0168457 C-57.74152863 116.28680862 -58.80678772 116.55677155 -59.90432739 116.83491516 C-73.31499547 120.05181048 -90.05044281 122.36700097 -102.9375 116.5625 C-105.94367269 113.55632731 -105.53335316 110.73868402 -105.9375 106.5625 C-105.2775 106.5625 -104.6175 106.5625 -103.9375 106.5625 C-103.669375 105.593125 -103.40125 104.62375 -103.125 103.625 C-102.733125 102.614375 -102.34125 101.60375 -101.9375 100.5625 C-100.4525 100.0675 -100.4525 100.0675 -98.9375 99.5625 C-98.834375 98.964375 -98.73125 98.36625 -98.625 97.75 C-97.72947329 94.90059683 -96.19072367 94.42431926 -93.7668457 92.8762207 C-90.03564811 90.19670993 -86.90945803 86.81986416 -83.6875 83.5625 C-82.96820313 82.8509375 -82.24890625 82.139375 -81.5078125 81.40625 C-80.81945312 80.7153125 -80.13109375 80.024375 -79.421875 79.3125 C-78.80022461 78.68859375 -78.17857422 78.0646875 -77.53808594 77.421875 C-75.92650699 75.5497296 -74.97214879 73.79240673 -73.9375 71.5625 C-71.7849224 68.92070022 -70.21330988 68.2837174 -66.9375 67.5625 C-66.9782666 66.65072998 -67.0190332 65.73895996 -67.06103516 64.79956055 C-67.20869076 61.36493449 -67.34521503 57.93021757 -67.47460938 54.49487305 C-67.53243898 53.01780852 -67.5944977 51.54090247 -67.66113281 50.06420898 C-68.22359129 37.49837518 -68.62445343 23.63296103 -60.125 13.375 C-57.616645 11.29664872 -56.08024903 11.17571932 -52.9375 10.5625 C-50.33894575 8.71699966 -50.33894575 8.71699966 -47.9375 6.5625 C-44.52030316 3.60092941 -41.2769519 2.74598688 -36.9375 1.5625 C-35.9475 0.9025 -34.9575 0.2425 -33.9375 -0.4375 C-31.98614348 -0.72076143 -30.03308272 -1.00282637 -28.0703125 -1.19140625 C-25.90157025 -1.4051093 -25.90157025 -1.4051093 -23.6640625 -1.9375 C-16.16433657 -3.31280791 -6.63528398 -4.25127929 0 0 Z " fill="#F8DB9C" transform="translate(107.9375,10.4375)"/>
<path d="M0 0 C0.66 0.33 1.32 0.66 2 1 C2.07015541 18.46362693 2.12302012 35.92720972 2.15543652 53.39094543 C2.17088967 61.50009885 2.19194944 69.60916459 2.22631836 77.71826172 C2.25626832 84.78812279 2.27558628 91.85792034 2.28226548 98.92784309 C2.28616829 102.6695454 2.29530783 106.41106602 2.31719017 110.15270996 C2.34144976 114.33496072 2.34196641 118.51689782 2.34057617 122.69921875 C2.351362 123.93280624 2.36214783 125.16639374 2.3732605 126.43736267 C2.33864073 136.06533538 0.87322467 142.9591357 -6 150 C-9.07413233 151.90644614 -11.4525864 152.26443313 -15.04394531 152.31884766 C-16.04468079 152.33871735 -17.04541626 152.35858704 -18.07647705 152.37905884 C-19.68604279 152.39638565 -19.68604279 152.39638565 -21.328125 152.4140625 C-22.43226746 152.43342865 -23.53640991 152.4527948 -24.67401123 152.4727478 C-28.19926233 152.53250892 -31.72454615 152.57891564 -35.25 152.625 C-37.64063921 152.66318292 -40.03126471 152.70223483 -42.421875 152.7421875 C-48.28112826 152.83820767 -54.14046415 152.92326548 -60 153 C-60.11685585 139.13539103 -60.20466638 125.27085854 -60.25906086 111.40585804 C-60.28516617 104.96790818 -60.32058252 98.53028889 -60.37719727 92.0925293 C-60.43148184 85.88094008 -60.46141349 79.66966904 -60.47438622 73.45786095 C-60.48363234 71.08672768 -60.50168771 68.71561203 -60.52865028 66.34461403 C-60.5648918 63.02598928 -60.56994718 59.70868304 -60.56762695 56.38989258 C-60.58560333 55.40733994 -60.60357971 54.42478729 -60.62210083 53.41246033 C-60.58690647 48.76726833 -60.5592888 46.70797915 -57.60163879 42.96401978 C-56.74309799 42.31589325 -55.88455719 41.66776672 -55 41 C-54.27603027 40.40131104 -53.55206055 39.80262207 -52.80615234 39.18579102 C-51.707146 38.35325806 -51.707146 38.35325806 -50.5859375 37.50390625 C-49.7520752 36.8699292 -48.91821289 36.23595215 -48.05908203 35.58276367 C-47.17333496 34.91607666 -46.28758789 34.24938965 -45.375 33.5625 C-44.44929199 32.86165283 -43.52358398 32.16080566 -42.56982422 31.4387207 C-33.44057779 24.54319298 -24.23187854 17.75714664 -15 11 C-13.49332251 9.89475897 -11.98680911 8.78929421 -10.48046875 7.68359375 C-6.98831062 5.12057488 -3.49465521 2.55961294 0 0 Z " fill="#38A653" transform="translate(317,91)"/>
<path d="M0 0 C1.41831841 0.93855497 2.83569505 1.8785332 4.25268555 2.8190918 C5.0420903 3.34238571 5.83149506 3.86567963 6.64482117 4.40483093 C10.12205875 6.75997346 13.4692913 9.27231692 16.8125 11.8125 C18.20962157 12.86720584 19.60675711 13.92189319 21.00390625 14.9765625 C22.02121826 15.74661621 22.02121826 15.74661621 23.05908203 16.53222656 C25.78321058 18.59228453 28.51641504 20.64000535 31.25 22.6875 C34.17507387 24.88031587 37.09901713 27.07455106 40.01953125 29.2734375 C41.52580078 30.40652344 41.52580078 30.40652344 43.0625 31.5625 C44.04089844 32.29984375 45.01929688 33.0371875 46.02734375 33.796875 C49.90283556 36.6691186 53.85244813 39.43277936 57.8203125 42.17578125 C60.04992251 44.04178103 61.10945121 45.24589541 62 48 C61.67 48.99 61.34 49.98 61 51 C60.91403578 52.35596935 60.88227614 53.71580835 60.88647461 55.07449341 C60.8865451 55.90175934 60.8866156 56.72902527 60.88668823 57.58135986 C60.89185455 58.48537537 60.89702087 59.38939087 60.90234375 60.32080078 C60.90380402 61.27548248 60.90526428 62.23016418 60.9067688 63.21377563 C60.91057629 65.28779745 60.91669443 67.36181601 60.92483521 69.43582535 C60.93756806 72.71282857 60.94410624 75.98979147 60.94897461 79.26681519 C60.96041648 86.21956154 60.9796683 93.17227471 61 100.125 C61.02354678 108.18603142 61.0439494 116.24704404 61.05593872 124.30810165 C61.06245129 127.54609429 61.07495814 130.78402968 61.08764648 134.02200317 C61.0912768 135.99399769 61.0946288 137.96599275 61.09765625 139.93798828 C61.10540573 141.30008423 61.10540573 141.30008423 61.11331177 142.68969727 C61.11349227 144.79347059 61.0624852 146.89715482 61 149 C60 150 60 150 57.94358826 150.12025452 C57.03979935 150.11803391 56.13601044 150.11581329 55.20483398 150.11352539 C54.18385117 150.11344986 53.16286835 150.11337433 52.11094666 150.11329651 C51.0005452 150.10813522 49.89014374 150.10297394 48.74609375 150.09765625 C47.61551041 150.0962413 46.48492706 150.09482635 45.32008362 150.09336853 C41.69252935 150.08775019 38.06503576 150.07519458 34.4375 150.0625 C31.98502693 150.05748736 29.5325529 150.05292405 27.08007812 150.04882812 C21.05336455 150.0377748 15.02668661 150.02101884 9 150 C8.67 149.01 8.34 148.02 8 147 C7.01 146.54625 6.02 146.0925 5 145.625 C2 144 2 144 1.1875 141.5 C1.125625 140.675 1.06375 139.85 1 139 C0.67 138.01 0.34 137.02 0 136 C-0.09078799 134.16051963 -0.12195195 132.31786917 -0.12025452 130.47615051 C-0.12162918 129.32770157 -0.12300385 128.17925262 -0.12442017 126.9960022 C-0.12082489 125.73508759 -0.11722961 124.47417297 -0.11352539 123.17504883 C-0.11324334 121.8347219 -0.11340161 120.49439483 -0.1139679 119.15406799 C-0.11425516 115.51385237 -0.10836983 111.8736696 -0.10139394 108.23346162 C-0.09514866 104.42978726 -0.09455567 100.62611217 -0.09336853 96.82243347 C-0.09025869 89.61891836 -0.08204996 82.41541839 -0.07201904 75.21190995 C-0.06084715 67.01127298 -0.05534474 58.8106353 -0.05032361 50.60999262 C-0.03986707 33.73998631 -0.02227432 16.86999476 0 0 Z " fill="#4686F2" transform="translate(57,93)"/>
<path d="M0 0 C8.27015524 -0.2144997 15.96235969 -0.07422976 24 2 C24 2.66 24 3.32 24 4 C25.68522729 5.70484466 25.68522729 5.70484466 27.8125 7.4375 C33.73513709 12.43236516 36.86760378 15.45790672 37.80371094 23.42114258 C38.22356059 28.93715241 38.10044439 34.4717947 38.0625 40 C38.05798828 41.25167969 38.05347656 42.50335938 38.04882812 43.79296875 C38.03711415 46.86202941 38.02071073 49.93098907 38 53 C37.26604004 53.26393555 36.53208008 53.52787109 35.77587891 53.79980469 C32.99393821 55.00262091 30.97006974 56.34594524 28.5859375 58.203125 C27.75191406 58.84685059 26.91789062 59.49057617 26.05859375 60.15380859 C25.17300781 60.84555176 24.28742188 61.53729492 23.375 62.25 C21.48798918 63.70703817 19.59994646 65.1627408 17.7109375 66.6171875 C16.75799805 67.35163086 15.80505859 68.08607422 14.82324219 68.84277344 C9.81678399 72.66818546 4.72796556 76.38008514 -0.35766602 80.09912109 C-6.20732674 84.38725413 -11.94428219 88.80043761 -17.62890625 93.3046875 C-20 95 -20 95 -22 95 C-22.20029766 85.04708256 -22.3840065 75.09401006 -22.54658794 65.14040089 C-22.62260284 60.5184525 -22.704312 55.89675157 -22.79907227 51.27514648 C-22.89032441 46.8143887 -22.96656943 42.35360285 -23.03244972 37.89240074 C-23.06020448 36.19108209 -23.09335058 34.4898425 -23.13199425 32.78873634 C-23.18523274 30.40447203 -23.21922942 28.02064569 -23.2487793 25.63598633 C-23.26891586 24.93395584 -23.28905243 24.23192535 -23.30979919 23.50862122 C-23.33824442 19.16731862 -22.7352513 16.4113943 -20 13 C-19.01 12.67 -18.02 12.34 -17 12 C-16.67 11.34 -16.34 10.68 -16 10 C-15.01 9.67 -14.02 9.34 -13 9 C-12.67 8.34 -12.34 7.68 -12 7 C-11.01 6.67 -10.02 6.34 -9 6 C-8.071875 5.01 -8.071875 5.01 -7.125 4 C-4.71248065 1.72939356 -3.23922825 1.35991425 0 1 C0 0.67 0 0.34 0 0 Z " fill="#F6BA09" transform="translate(281,39)"/>
<path d="M0 0 C4.01441199 3.22077584 7.60619692 6.95064886 11.1171875 10.70703125 C13.01882194 12.78458061 13.01882194 12.78458061 16.0625 13.5625 C16.2790625 14.4596875 16.2790625 14.4596875 16.5 15.375 C17.25601052 18.31504091 18.87799282 19.51038719 21.0625 21.5625 C22.0525 23.0475 22.0525 23.0475 23.0625 24.5625 C23.7225 24.8925 24.3825 25.2225 25.0625 25.5625 C25.0625 27.2125 25.0625 28.8625 25.0625 30.5625 C24.3597998 30.73265625 23.65709961 30.9028125 22.93310547 31.078125 C1.67556011 36.27587304 -18.555544 42.28691544 -37.9375 52.5625 C-39.28675138 53.23512482 -40.63843659 53.9028839 -41.9921875 54.56640625 C-48.89374871 57.94977625 -55.62485692 61.39376475 -62.1171875 65.53125 C-63.9375 66.5625 -63.9375 66.5625 -65.9375 66.5625 C-67.02820006 60.49789427 -67.35300712 54.52203908 -67.625 48.375 C-67.68494141 47.30185547 -67.74488281 46.22871094 -67.80664062 45.12304688 C-68.20440325 36.11617533 -67.4836944 27.91503386 -63.9375 19.5625 C-63.64875 18.881875 -63.36 18.20125 -63.0625 17.5 C-61.63076217 15.03422929 -60.13577053 13.38392415 -57.9375 11.5625 C-56.27249557 11.22096063 -54.60571323 10.88800502 -52.9375 10.5625 C-50.33894575 8.71699966 -50.33894575 8.71699966 -47.9375 6.5625 C-44.52030316 3.60092941 -41.2769519 2.74598688 -36.9375 1.5625 C-35.9475 0.9025 -34.9575 0.2425 -33.9375 -0.4375 C-31.98614348 -0.72076143 -30.03308272 -1.00282637 -28.0703125 -1.19140625 C-25.90157025 -1.4051093 -25.90157025 -1.4051093 -23.6640625 -1.9375 C-16.16433657 -3.31280791 -6.63528398 -4.25127929 0 0 Z " fill="#F7DA9A" transform="translate(107.9375,10.4375)"/>
<path d="M0 0 C0 25.74 0 51.48 0 78 C-3.04386996 76.47806502 -5.39824942 75.08589941 -8.08984375 73.09375 C-8.86714844 72.52011719 -9.64445312 71.94648438 -10.4453125 71.35546875 C-11.26773438 70.74316406 -12.09015625 70.13085938 -12.9375 69.5 C-13.79214844 68.86707031 -14.64679688 68.23414062 -15.52734375 67.58203125 C-21.24561401 63.33638782 -26.89934409 59.01676671 -32.52734375 54.65234375 C-39.26332346 49.47097701 -46.1529412 44.48891366 -53.00805664 39.46704102 C-53.66539795 38.98291748 -54.32273926 38.49879395 -55 38 C-55.73629639 37.49871582 -56.47259277 36.99743164 -57.23120117 36.48095703 C-59 35 -59 35 -59.390625 32.30078125 C-59.34421875 31.31464844 -59.2978125 30.32851562 -59.25 29.3125 C-59.21390625 28.31863281 -59.1778125 27.32476562 -59.140625 26.30078125 C-59.09421875 25.54152344 -59.0478125 24.78226563 -59 24 C-45.12152152 16.58255897 -30.62595592 10.76771113 -16 5 C-14.80552246 4.52353027 -13.61104492 4.04706055 -12.38037109 3.55615234 C-10.63554443 2.86900146 -10.63554443 2.86900146 -8.85546875 2.16796875 C-7.80383545 1.75184326 -6.75220215 1.33571777 -5.66870117 0.90698242 C-3 0 -3 0 0 0 Z " fill="#B9241E" transform="translate(117,59)"/>
<path d="M0 0 C1.07639874 5.27435382 1.06593119 8.98273854 -1 14 C-2.32486076 14.68334924 -3.6594216 15.34802471 -5 16 C-6.89657813 17.79453656 -6.89657813 17.79453656 -8.625 19.875 C-9.21539062 20.55304688 -9.80578125 21.23109375 -10.4140625 21.9296875 C-12.06034314 23.92070347 -12.06034314 23.92070347 -12.99609375 26.16796875 C-14 28 -14 28 -17.4375 29.4375 C-21.07928524 30.62282649 -21.07928524 30.62282649 -22.375 33.3125 C-24.86725987 37.4343144 -28.62124895 40.04568013 -33 42 C-36.84365229 42.43326884 -39.08564506 42.55746156 -42.421875 40.5234375 C-43.19015625 39.81445312 -43.9584375 39.10546875 -44.75 38.375 C-49.92576649 33.84079788 -55.31197712 29.73747383 -60.875 25.6875 C-72.4837083 17.22595035 -72.4837083 17.22595035 -75 15 C-75 14.34 -75 13.68 -75 13 C-22.13359965 -6.04034064 -22.13359965 -6.04034064 0 0 Z " fill="#D19A51" transform="translate(192,45)"/>
<path d="M0 0 C-0.33 13.86 -0.66 27.72 -1 42 C-37.29498525 51.07374631 -37.29498525 51.07374631 -53 44 C-56.00617269 40.99382731 -55.59585316 38.17618402 -56 34 C-55.34 34 -54.68 34 -54 34 C-53.731875 33.030625 -53.46375 32.06125 -53.1875 31.0625 C-52.795625 30.051875 -52.40375 29.04125 -52 28 C-51.01 27.67 -50.02 27.34 -49 27 C-48.855625 26.360625 -48.71125 25.72125 -48.5625 25.0625 C-48 23 -48 23 -45.9375 21.75 C-45.298125 21.5025 -44.65875 21.255 -44 21 C-43.67 21.66 -43.34 22.32 -43 23 C-39.08879168 22.36675675 -36.49280191 20.46026797 -33.25 18.25 C-26.4547347 13.73023516 -19.3661348 9.81239161 -12.1875 5.9375 C-11.10694336 5.35323242 -10.02638672 4.76896484 -8.91308594 4.16699219 C-1.14247692 0 -1.14247692 0 0 0 Z " fill="#D29B4F" transform="translate(58,83)"/>
<path d="M0 0 C0.495 1.485 0.495 1.485 1 3 C1.99 3.495 1.99 3.495 3 4 C3 5.65 3 7.3 3 9 C1.94594971 9.25523438 1.94594971 9.25523438 0.87060547 9.515625 C-20.38693989 14.71337304 -40.618044 20.72441544 -60 31 C-61.34925138 31.67262482 -62.70093659 32.3403839 -64.0546875 33.00390625 C-70.95624871 36.38727625 -77.68735692 39.83126475 -84.1796875 43.96875 C-86 45 -86 45 -88 45 C-89.03590199 39.94997778 -89.10251672 35.12583611 -89 30 C-88.01773438 29.66355469 -88.01773438 29.66355469 -87.015625 29.3203125 C-82.99572005 27.5603023 -79.44856012 25.22317869 -75.75 22.875 C-67.12802159 17.50993936 -58.32094667 13.0137478 -49 9 C-47.91589844 8.52949219 -46.83179688 8.05898438 -45.71484375 7.57421875 C-9.97543421 -7.01975 -9.97543421 -7.01975 0 0 Z " fill="#4886EF" transform="translate(130,32)"/>
<path d="M0 0 C6.03687478 4.02458319 11.84884805 8.06599544 17.5625 12.5 C18.98018132 13.59412253 20.398149 14.68787412 21.81640625 15.78125 C22.84338623 16.57402344 22.84338623 16.57402344 23.89111328 17.3828125 C27.23936639 19.9504009 30.61778335 22.47739931 34 25 C31.42689425 27.03155048 28.99257573 28.59555265 25.98828125 29.90234375 C25.22966797 30.23556641 24.47105469 30.56878906 23.68945312 30.91210938 C22.90505859 31.25048828 22.12066406 31.58886719 21.3125 31.9375 C20.54744141 32.27201172 19.78238281 32.60652344 18.99414062 32.95117188 C17.44886235 33.6268243 15.90214365 34.29919186 14.35400391 34.96826172 C12.73466239 35.67800422 11.12263853 36.40460426 9.51708984 37.14501953 C8.72125488 37.51095215 7.92541992 37.87688477 7.10546875 38.25390625 C6.3889917 38.58849854 5.67251465 38.92309082 4.93432617 39.26782227 C3 40 3 40 0 40 C0 26.8 0 13.6 0 0 Z " fill="#D03D2F" transform="translate(117,60)"/>
<path d="M0 0 C-1.11263578 3.33790735 -1.90490039 3.97187624 -4.5625 6.125 C-12.33619347 12.6817777 -12.33619347 12.6817777 -17.9140625 21.01953125 C-20.36376353 25.48715147 -25.30012208 27.86731855 -29.640625 30.2421875 C-30.71183594 30.83386719 -31.78304687 31.42554687 -32.88671875 32.03515625 C-33.99660156 32.64230469 -35.10648438 33.24945313 -36.25 33.875 C-43.71851155 37.96552753 -51.01425721 42.12074805 -58 47 C-58.66 46.67 -59.32 46.34 -60 46 C-59.42625653 42.37614607 -58.09712715 40.76005344 -55.47265625 38.25 C-54.76302734 37.5590625 -54.05339844 36.868125 -53.32226562 36.15625 C-52.57654297 35.4446875 -51.83082031 34.733125 -51.0625 34 C-49.59047805 32.58808668 -48.12284514 31.17157977 -46.66015625 29.75 C-46.00668213 29.12609375 -45.35320801 28.5021875 -44.67993164 27.859375 C-42.98821449 25.98695561 -42.04470622 24.28044103 -41 22 C-39.44071101 20.08632715 -38.57360996 19.13701092 -36.15405273 18.55908203 C-33.76749406 17.93965334 -32.02794316 16.99960037 -29.91015625 15.7421875 C-29.13148193 15.28432861 -28.35280762 14.82646973 -27.55053711 14.35473633 C-26.72948486 13.86642334 -25.90843262 13.37811035 -25.0625 12.875 C-23.35759887 11.87488918 -21.6518654 10.87619594 -19.9453125 9.87890625 C-18.68895996 9.14438232 -18.68895996 9.14438232 -17.40722656 8.39501953 C-2.92089604 0 -2.92089604 0 0 0 Z " fill="#EBC47B" transform="translate(75,60)"/>
<path d="M0 0 C5.92277345 3.94851564 11.70387068 7.90975523 17.375 12.1875 C18.07238281 12.70763672 18.76976563 13.22777344 19.48828125 13.76367188 C20.15988281 14.26833984 20.83148438 14.77300781 21.5234375 15.29296875 C22.12075684 15.7418042 22.71807617 16.19063965 23.33349609 16.65307617 C25.00854155 18.00690357 26.50631383 19.45030771 28 21 C19.39662523 24.51580219 10.70830978 27.73438383 2 31 C1.67 65.65 1.34 100.3 1 136 C0.67 136 0.34 136 0 136 C0 91.12 0 46.24 0 0 Z " fill="#3E72C6" transform="translate(57,93)"/>
<path d="M0 0 C0.66 0.33 1.32 0.66 2 1 C2.4640625 2.7015625 2.4640625 2.7015625 2.9375 4.4375 C3.65621357 8.23216998 3.65621357 8.23216998 7 10 C6.47680176 10.27150879 5.95360352 10.54301758 5.41455078 10.82275391 C-7.64501948 17.5585706 -7.64501948 17.5585706 -20.28515625 25.0390625 C-22 26 -22 26 -24 26 C-25.03590199 20.94997778 -25.10251672 16.12583611 -25 11 C-24.34128906 10.77699219 -23.68257812 10.55398437 -23.00390625 10.32421875 C-18.263985 8.2347086 -14.08305923 5.25786761 -9.79492188 2.36914062 C-9.10849609 1.92376953 -8.42207031 1.47839844 -7.71484375 1.01953125 C-7.09730225 0.60807861 -6.47976074 0.19662598 -5.84350586 -0.22729492 C-3.48063869 -1.21769018 -2.37083126 -0.86264865 0 0 Z " fill="#376DC3" transform="translate(66,51)"/>
<path d="M0 0 C0.66 0.33 1.32 0.66 2 1 C1.50346924 1.41354736 1.00693848 1.82709473 0.49536133 2.25317383 C-1.435313 4.11692923 -1.435313 4.11692923 -0.92578125 7.94921875 C-0.73823344 9.53073896 -0.5330857 11.1102485 -0.3125 12.6875 C-0.22033203 13.46544922 -0.12816406 14.24339844 -0.03320312 15.04492188 C0.45003912 18.88205735 1.10594104 22.54303109 2.14453125 26.26953125 C3.37949458 31.65487365 3.37949458 31.65487365 2 35 C-0.06640625 36.80078125 -0.06640625 36.80078125 -2.5625 38.3125 C-3.38878906 38.82425781 -4.21507812 39.33601563 -5.06640625 39.86328125 C-5.70449219 40.23839844 -6.34257813 40.61351562 -7 41 C-7.66 40.67 -8.32 40.34 -9 40 C-9.37646017 37.50443337 -9.61430496 35.13663838 -9.75 32.625 C-9.79165283 31.90272217 -9.83330566 31.18044434 -9.8762207 30.4362793 C-10.28608418 21.09450499 -8.7451494 12.17220174 -4 4 C-2.70529025 2.62913085 -1.37849103 1.28659163 0 0 Z " fill="#DEB572" transform="translate(50,22)"/>
<path d="M0 0 C1 1 1 1 1.33203125 3.734375 C0.90875704 7.89740137 -0.44145891 9.26448359 -3.3125 12.25 C-4.11300781 13.10078125 -4.91351563 13.9515625 -5.73828125 14.828125 C-8 17 -8 17 -11 19 C-13.33930023 17.21568681 -15.6713837 15.42315931 -18 13.625 C-18.66773437 13.11710937 -19.33546875 12.60921875 -20.0234375 12.0859375 C-20.65507813 11.59609375 -21.28671875 11.10625 -21.9375 10.6015625 C-22.52402344 10.15119629 -23.11054687 9.70083008 -23.71484375 9.23681641 C-24.13894531 8.82866699 -24.56304687 8.42051758 -25 8 C-25 7.34 -25 6.68 -25 6 C-21.58915232 4.79530432 -18.17056267 3.61429908 -14.75 2.4375 C-13.29787109 1.92413086 -13.29787109 1.92413086 -11.81640625 1.40039062 C-10.88183594 1.08134766 -9.94726562 0.76230469 -8.984375 0.43359375 C-8.12553711 0.13509521 -7.26669922 -0.16340332 -6.38183594 -0.47094727 C-3.81401611 -1.04131069 -2.44324836 -0.90991583 0 0 Z " fill="#AE7A3C" transform="translate(142,52)"/>
<path d="M0 0 C0.10477512 5.78591511 -0.00749455 11.29309366 -1 17 C-2.89510699 17.08160748 -4.79124504 17.13946459 -6.6875 17.1875 C-8.27111328 17.23970703 -8.27111328 17.23970703 -9.88671875 17.29296875 C-13.35422768 16.96666615 -15.18432448 15.99030125 -18 14 C-17.93359375 11.765625 -17.93359375 11.765625 -17 9 C-14.67299399 7.3407947 -12.57535954 6.04503167 -10.0625 4.75 C-9.41603516 4.399375 -8.76957031 4.04875 -8.10351562 3.6875 C-1.27454928 0 -1.27454928 0 0 0 Z " fill="#AD7B3C" transform="translate(58,83)"/>
<path d="M0 0 C0.99 0 1.98 0 3 0 C3 0.66 3 1.32 3 2 C3.66 2.33 4.32 2.66 5 3 C4.13375 3.680625 3.2675 4.36125 2.375 5.0625 C-0.72542744 7.61320627 -3.15356087 10.47663924 -5.60546875 13.64453125 C-7 15 -7 15 -10 15 C-9 13 -9 13 -7 10 C-6.67 9.01 -6.34 8.02 -6 7 C-5.01 6.67 -4.02 6.34 -3 6 C-2.40929986 4.05396726 -2.40929986 4.05396726 -2 2 C-1.34 1.34 -0.68 0.68 0 0 Z " fill="#B59B62" transform="translate(12,104)"/>
<path d="M0 0 C0.33 0 0.66 0 1 0 C1.04898438 0.71027344 1.09796875 1.42054687 1.1484375 2.15234375 C1.22320312 3.07144531 1.29796875 3.99054687 1.375 4.9375 C1.44460937 5.85402344 1.51421875 6.77054688 1.5859375 7.71484375 C1.72257812 8.46894531 1.85921875 9.22304688 2 10 C2.66 10.33 3.32 10.66 4 11 C4 11.99 4 12.98 4 14 C3.01 14.33 2.02 14.66 1 15 C0 14 0 14 -0.09765625 10.83984375 C-0.08025391 8.90818359 -0.08025391 8.90818359 -0.0625 6.9375 C-0.05347656 5.64714844 -0.04445312 4.35679688 -0.03515625 3.02734375 C-0.02355469 2.02832031 -0.01195312 1.02929688 0 0 Z " fill="#F3CF83" transform="translate(41,48)"/>
<path d="M0 0 C1.5625 1.8125 1.5625 1.8125 3 4 C2.67 4.99 2.34 5.98 2 7 C1.96045766 9.33299825 1.95598268 11.66708189 2 14 C-0.28062828 10.57905758 -0.21925007 9.31812778 -0.125 5.3125 C-0.10695313 4.31863281 -0.08890625 3.32476562 -0.0703125 2.30078125 C-0.04710938 1.54152344 -0.02390625 0.78226563 0 0 Z " fill="#2C4893" transform="translate(116,137)"/>
<path d="M0 0 C0 3.3 0 6.6 0 10 C-0.99 10.495 -0.99 10.495 -2 11 C-2.33 7.7 -2.66 4.4 -3 1 C-1 0 -1 0 0 0 Z " fill="#B4703C" transform="translate(58,83)"/>
<path d="M0 0 C0.66 0.33 1.32 0.66 2 1 C0.92456217 1.98783194 -0.16073217 2.96493943 -1.25 3.9375 C-2.15492188 4.75541016 -2.15492188 4.75541016 -3.078125 5.58984375 C-5.08467305 7.06212799 -6.57002449 7.57529189 -9 8 C-6.14723863 5.06799526 -3.34920216 2.35684596 0 0 Z " fill="#EB4F42" transform="translate(224,82)"/>
<path d="M0 0 C0.66 0.33 1.32 0.66 2 1 C-0.97 3.97 -3.94 6.94 -7 10 C-7 7 -7 7 -5.46875 5.17578125 C-4.8190625 4.56089844 -4.169375 3.94601563 -3.5 3.3125 C-2.8503125 2.68988281 -2.200625 2.06726563 -1.53125 1.42578125 C-0.77328125 0.72001953 -0.77328125 0.72001953 0 0 Z " fill="#000000" transform="translate(25,90)"/>
<path d="M0 0 C0 0.99 0 1.98 0 3 C-1.98 3.99 -1.98 3.99 -4 5 C-2.68 3.35 -1.36 1.7 0 0 Z " fill="#000000" transform="translate(315,236)"/>
<path d="M0 0 C1.98 0.99 1.98 0.99 4 2 C4 2.99 4 3.98 4 5 C2.68 3.35 1.36 1.7 0 0 Z " fill="#000000" transform="translate(308,44)"/>
<path d="M0 0 C1.98 0.99 1.98 0.99 4 2 C4 2.99 4 3.98 4 5 C2.68 3.35 1.36 1.7 0 0 Z " fill="#000000" transform="translate(113,14)"/>
<path d="M0 0 C0.66 0.33 1.32 0.66 2 1 C1.01 1 0.02 1 -1 1 C-0.67 0.67 -0.34 0.34 0 0 Z " fill="#000000" transform="translate(192,185)"/>
<path d="M0 0 C0.66 0.33 1.32 0.66 2 1 C1.01 1 0.02 1 -1 1 C-0.67 0.67 -0.34 0.34 0 0 Z " fill="#000000" transform="translate(200,179)"/>
<path d="M0 0 C0.99 0.33 1.98 0.66 3 1 C2.01 1 1.02 1 0 1 C0 0.67 0 0.34 0 0 Z " fill="#000000" transform="translate(168,178)"/>
<path d="M0 0 C0.66 0.33 1.32 0.66 2 1 C1.01 1 0.02 1 -1 1 C-0.67 0.67 -0.34 0.34 0 0 Z " fill="#000000" transform="translate(204,176)"/>
<path d="M0 0 C0.99 0.33 1.98 0.66 3 1 C2.01 1 1.02 1 0 1 C0 0.67 0 0.34 0 0 Z " fill="#000000" transform="translate(164,175)"/>
<path d="M0 0 C0.99 0.33 1.98 0.66 3 1 C2.01 1 1.02 1 0 1 C0 0.67 0 0.34 0 0 Z " fill="#000000" transform="translate(156,169)"/>
<path d="M0 0 C0.99 0.33 1.98 0.66 3 1 C2.01 1 1.02 1 0 1 C0 0.67 0 0.34 0 0 Z " fill="#000000" transform="translate(148,163)"/>
<path d="M0 0 C0.66 0.33 1.32 0.66 2 1 C1.01 1 0.02 1 -1 1 C-0.67 0.67 -0.34 0.34 0 0 Z " fill="#000000" transform="translate(235,153)"/>
<path d="M0 0 C0.99 0.33 1.98 0.66 3 1 C2.01 1 1.02 1 0 1 C0 0.67 0 0.34 0 0 Z " fill="#000000" transform="translate(132,151)"/>
<path d="M0 0 C0.66 0.33 1.32 0.66 2 1 C1.01 1 0.02 1 -1 1 C-0.67 0.67 -0.34 0.34 0 0 Z " fill="#000000" transform="translate(239,150)"/>
<path d="M0 0 C0.99 0.33 1.98 0.66 3 1 C2.01 1 1.02 1 0 1 C0 0.67 0 0.34 0 0 Z " fill="#000000" transform="translate(124,145)"/>
<path d="M0 0 C0.99 0.33 1.98 0.66 3 1 C2.01 1 1.02 1 0 1 C0 0.67 0 0.34 0 0 Z " fill="#000000" transform="translate(120,142)"/>
<path d="M0 0 C0.66 0.33 1.32 0.66 2 1 C1.01 1 0.02 1 -1 1 C-0.67 0.67 -0.34 0.34 0 0 Z " fill="#000000" transform="translate(187,107)"/>
<path d="M0 0 C0.99 0.33 1.98 0.66 3 1 C2.01 1 1.02 1 0 1 C0 0.67 0 0.34 0 0 Z " fill="#000000" transform="translate(181,106)"/>
<path d="M0 0 C0.66 0.33 1.32 0.66 2 1 C1.01 1 0.02 1 -1 1 C-0.67 0.67 -0.34 0.34 0 0 Z " fill="#000000" transform="translate(191,104)"/>
<path d="M0 0 C0.99 0.33 1.98 0.66 3 1 C2.01 1 1.02 1 0 1 C0 0.67 0 0.34 0 0 Z " fill="#000000" transform="translate(177,103)"/>
<path d="M0 0 C0.66 0.33 1.32 0.66 2 1 C1.01 1 0.02 1 -1 1 C-0.67 0.67 -0.34 0.34 0 0 Z " fill="#000000" transform="translate(195,101)"/>
<path d="M0 0 C0.99 0.33 1.98 0.66 3 1 C2.01 1 1.02 1 0 1 C0 0.67 0 0.34 0 0 Z " fill="#000000" transform="translate(169,97)"/>
<path d="M0 0 C0.99 0.33 1.98 0.66 3 1 C2.01 1 1.02 1 0 1 C0 0.67 0 0.34 0 0 Z " fill="#000000" transform="translate(165,94)"/>
<path d="M0 0 C0.66 0.33 1.32 0.66 2 1 C1.01 1 0.02 1 -1 1 C-0.67 0.67 -0.34 0.34 0 0 Z " fill="#000000" transform="translate(206,93)"/>
<path d="M0 0 C0.99 0.33 1.98 0.66 3 1 C2.01 1 1.02 1 0 1 C0 0.67 0 0.34 0 0 Z " fill="#000000" transform="translate(161,91)"/>
<path d="M0 0 C0.66 0.33 1.32 0.66 2 1 C1.01 1 0.02 1 -1 1 C-0.67 0.67 -0.34 0.34 0 0 Z " fill="#000000" transform="translate(214,87)"/>
<path d="M0 0 C0.66 0.33 1.32 0.66 2 1 C1.01 1 0.02 1 -1 1 C-0.67 0.67 -0.34 0.34 0 0 Z " fill="#000000" transform="translate(218,84)"/>
<path d="M0 0 C0.66 0.33 1.32 0.66 2 1 C1.01 1 0.02 1 -1 1 C-0.67 0.67 -0.34 0.34 0 0 Z " fill="#000000" transform="translate(222,81)"/>
<path d="M0 0 C0.66 0.33 1.32 0.66 2 1 C1.01 1 0.02 1 -1 1 C-0.67 0.67 -0.34 0.34 0 0 Z " fill="#000000" transform="translate(226,78)"/>
<path d="M0 0 C0.66 0.33 1.32 0.66 2 1 C1.01 1 0.02 1 -1 1 C-0.67 0.67 -0.34 0.34 0 0 Z " fill="#000000" transform="translate(171,76)"/>
<path d="M0 0 C0 3 0 3 0 3 Z " fill="#000000" transform="translate(188,60)"/>
<path d="M0 0 C2 1 2 1 2 1 Z " fill="#000000" transform="translate(117,243)"/>
<path d="M0 0 C2 1 2 1 2 1 Z " fill="#000000" transform="translate(63,240)"/>
<path d="" fill="#000000" transform="translate(0,0)"/>
<path d="" fill="#000000" transform="translate(0,0)"/>
<path d="M0 0 C2 1 2 1 2 1 Z " fill="#000000" transform="translate(180,187)"/>
<path d="M0 0 C2 1 2 1 2 1 Z " fill="#000000" transform="translate(176,184)"/>
<path d="M0 0 C2 1 2 1 2 1 Z " fill="#000000" transform="translate(172,181)"/>
<path d="M0 0 C2 1 2 1 2 1 Z " fill="#000000" transform="translate(160,172)"/>
<path d="M0 0 C2 1 2 1 2 1 Z " fill="#000000" transform="translate(152,166)"/>
<path d="M0 0 C2 1 2 1 2 1 Z " fill="#000000" transform="translate(144,160)"/>
<path d="M0 0 C2 1 2 1 2 1 Z " fill="#000000" transform="translate(227,159)"/>
<path d="M0 0 C2 1 2 1 2 1 Z " fill="#000000" transform="translate(140,157)"/>
<path d="M0 0 C2 1 2 1 2 1 Z " fill="#000000" transform="translate(5,128)"/>
<path d="" fill="#000000" transform="translate(0,0)"/>
<path d="" fill="#000000" transform="translate(0,0)"/>
<path d="" fill="#000000" transform="translate(0,0)"/>
<path d="" fill="#000000" transform="translate(0,0)"/>
<path d="" fill="#000000" transform="translate(0,0)"/>
<path d="M0 0 C2 1 2 1 2 1 Z " fill="#000000" transform="translate(190,43)"/>
<path d="M0 0 C2 1 2 1 2 1 Z " fill="#000000" transform="translate(305,42)"/>
<path d="M0 0 C2 1 2 1 2 1 Z " fill="#000000" transform="translate(278,40)"/>
<path d="" fill="#000000" transform="translate(0,0)"/>
<path d="" fill="#000000" transform="translate(0,0)"/>
<path d="" fill="#000000" transform="translate(0,0)"/>
<path d="M0 0 C2 1 2 1 2 1 Z " fill="#000000" transform="translate(53,20)"/>
<path d="M0 0 C2 1 2 1 2 1 Z " fill="#000000" transform="translate(56,18)"/>
<path d="M0 0 C2 1 2 1 2 1 Z " fill="#000000" transform="translate(58,17)"/>
<path d="M0 0 C2 1 2 1 2 1 Z " fill="#000000" transform="translate(68,12)"/>
<path d="M0 0 C2 1 2 1 2 1 Z " fill="#000000" transform="translate(108,10)"/>
<path d="M0 0 C2 1 2 1 2 1 Z " fill="#000000" transform="translate(105,8)"/>
<path d="" fill="#000000" transform="translate(0,0)"/>
<path d="" fill="#000000" transform="translate(0,0)"/>
<path d="" fill="#000000" transform="translate(0,0)"/>
<path d="" fill="#000000" transform="translate(0,0)"/>
<path d="" fill="#000000" transform="translate(0,0)"/>
<path d="" fill="#000000" transform="translate(0,0)"/>
<path d="" fill="#000000" transform="translate(0,0)"/>
<path d="" fill="#000000" transform="translate(0,0)"/>
<path d="" fill="#000000" transform="translate(0,0)"/>
<path d="" fill="#000000" transform="translate(0,0)"/>
<path d="" fill="#000000" transform="translate(0,0)"/>
<path d="" fill="#000000" transform="translate(0,0)"/>
<path d="" fill="#000000" transform="translate(0,0)"/>
<path d="" fill="#000000" transform="translate(0,0)"/>
<path d="" fill="#000000" transform="translate(0,0)"/>
<path d="" fill="#000000" transform="translate(0,0)"/>
<path d="" fill="#000000" transform="translate(0,0)"/>
<path d="" fill="#000000" transform="translate(0,0)"/>
<path d="" fill="#000000" transform="translate(0,0)"/>
<path d="" fill="#000000" transform="translate(0,0)"/>
<path d="" fill="#000000" transform="translate(0,0)"/>
<path d="" fill="#000000" transform="translate(0,0)"/>
<path d="" fill="#000000" transform="translate(0,0)"/>
<path d="" fill="#000000" transform="translate(0,0)"/>
<path d="" fill="#000000" transform="translate(0,0)"/>
<path d="" fill="#000000" transform="translate(0,0)"/>
<path d="" fill="#000000" transform="translate(0,0)"/>
<path d="" fill="#000000" transform="translate(0,0)"/>
<path d="" fill="#000000" transform="translate(0,0)"/>
<path d="" fill="#000000" transform="translate(0,0)"/>
<path d="" fill="#000000" transform="translate(0,0)"/>
<path d="" fill="#000000" transform="translate(0,0)"/>
<path d="" fill="#000000" transform="translate(0,0)"/>
<path d="" fill="#000000" transform="translate(0,0)"/>
<path d="" fill="#000000" transform="translate(0,0)"/>
<path d="" fill="#000000" transform="translate(0,0)"/>
<path d="" fill="#000000" transform="translate(0,0)"/>
<path d="" fill="#000000" transform="translate(0,0)"/>
<path d="" fill="#000000" transform="translate(0,0)"/>
<path d="" fill="#000000" transform="translate(0,0)"/>
<path d="" fill="#000000" transform="translate(0,0)"/>
<path d="" fill="#000000" transform="translate(0,0)"/>
<path d="" fill="#000000" transform="translate(0,0)"/>
<path d="" fill="#000000" transform="translate(0,0)"/>
<path d="" fill="#000000" transform="translate(0,0)"/>
<path d="" fill="#000000" transform="translate(0,0)"/>
<path d="" fill="#000000" transform="translate(0,0)"/>
<path d="" fill="#000000" transform="translate(0,0)"/>
<path d="" fill="#000000" transform="translate(0,0)"/>
<path d="" fill="#000000" transform="translate(0,0)"/>
<path d="" fill="#000000" transform="translate(0,0)"/>
<path d="" fill="#000000" transform="translate(0,0)"/>
<path d="" fill="#000000" transform="translate(0,0)"/>
<path d="" fill="#000000" transform="translate(0,0)"/>
<path d="" fill="#000000" transform="translate(0,0)"/>
<path d="" fill="#000000" transform="translate(0,0)"/>
<path d="" fill="#000000" transform="translate(0,0)"/>
<path d="" fill="#000000" transform="translate(0,0)"/>
<path d="" fill="#000000" transform="translate(0,0)"/>
<path d="" fill="#000000" transform="translate(0,0)"/>
<path d="" fill="#000000" transform="translate(0,0)"/>
<path d="" fill="#000000" transform="translate(0,0)"/>
<path d="" fill="#000000" transform="translate(0,0)"/>
<path d="" fill="#000000" transform="translate(0,0)"/>
<path d="" fill="#000000" transform="translate(0,0)"/>
<path d="" fill="#000000" transform="translate(0,0)"/>
<path d="" fill="#000000" transform="translate(0,0)"/>
<path d="" fill="#000000" transform="translate(0,0)"/>
<path d="" fill="#000000" transform="translate(0,0)"/>
<path d="" fill="#000000" transform="translate(0,0)"/>
<path d="" fill="#000000" transform="translate(0,0)"/>
<path d="" fill="#000000" transform="translate(0,0)"/>
<path d="" fill="#000000" transform="translate(0,0)"/>
<path d="" fill="#000000" transform="translate(0,0)"/>
<path d="" fill="#000000" transform="translate(0,0)"/>
<path d="" fill="#000000" transform="translate(0,0)"/>
<path d="" fill="#000000" transform="translate(0,0)"/>
<path d="" fill="#000000" transform="translate(0,0)"/>
<path d="" fill="#000000" transform="translate(0,0)"/>
<path d="" fill="#000000" transform="translate(0,0)"/>
<path d="" fill="#000000" transform="translate(0,0)"/>
<path d="" fill="#000000" transform="translate(0,0)"/>
<path d="" fill="#000000" transform="translate(0,0)"/>
<path d="" fill="#000000" transform="translate(0,0)"/>
<path d="" fill="#000000" transform="translate(0,0)"/>
<path d="" fill="#000000" transform="translate(0,0)"/>
<path d="" fill="#000000" transform="translate(0,0)"/>
<path d="" fill="#000000" transform="translate(0,0)"/>
<path d="" fill="#000000" transform="translate(0,0)"/>
<path d="" fill="#000000" transform="translate(0,0)"/>
<path d="" fill="#000000" transform="translate(0,0)"/>
<path d="" fill="#000000" transform="translate(0,0)"/>
<path d="" fill="#000000" transform="translate(0,0)"/>
<path d="" fill="#000000" transform="translate(0,0)"/>
<path d="" fill="#000000" transform="translate(0,0)"/>
<path d="" fill="#000000" transform="translate(0,0)"/>
<path d="" fill="#000000" transform="translate(0,0)"/>
<path d="" fill="#000000" transform="translate(0,0)"/>
<path d="" fill="#000000" transform="translate(0,0)"/>
<path d="" fill="#000000" transform="translate(0,0)"/>
<path d="" fill="#000000" transform="translate(0,0)"/>
<path d="" fill="#000000" transform="translate(0,0)"/>
<path d="" fill="#000000" transform="translate(0,0)"/>
<path d="" fill="#000000" transform="translate(0,0)"/>
<path d="" fill="#000000" transform="translate(0,0)"/>
<path d="" fill="#000000" transform="translate(0,0)"/>
<path d="" fill="#000000" transform="translate(0,0)"/>
<path d="" fill="#000000" transform="translate(0,0)"/>
<path d="" fill="#000000" transform="translate(0,0)"/>
<path d="" fill="#000000" transform="translate(0,0)"/>
<path d="" fill="#000000" transform="translate(0,0)"/>
<path d="" fill="#000000" transform="translate(0,0)"/>
<path d="" fill="#000000" transform="translate(0,0)"/>
<path d="" fill="#000000" transform="translate(0,0)"/>
<path d="" fill="#000000" transform="translate(0,0)"/>
<path d="" fill="#000000" transform="translate(0,0)"/>
<path d="" fill="#000000" transform="translate(0,0)"/>
<path d="" fill="#000000" transform="translate(0,0)"/>
<path d="" fill="#000000" transform="translate(0,0)"/>
<path d="" fill="#000000" transform="translate(0,0)"/>
<path d="" fill="#000000" transform="translate(0,0)"/>
<path d="" fill="#000000" transform="translate(0,0)"/>
<path d="" fill="#000000" transform="translate(0,0)"/>
<path d="" fill="#000000" transform="translate(0,0)"/>
<path d="" fill="#000000" transform="translate(0,0)"/>
</svg>
